# xmcd
#
# Track frame offsets: 
#        150
#        24667
#        45120
#        52867
#        65195
#        78720
#        88932
#        109305
#        130287
#        146540
#        161660
#        185200
#
# Disc length: 2669 seconds
#
# Revision: 2
# Processed by: cddbd v1.5.2PL0 Copyright (c) Steve Scherf et al.
# Submitted via: ExactAudioCopy v1.0b3
#
DISCID=ac0a6b0c
DTITLE=宮川 泰 - 交響組曲 宇宙戦艦ヤマト
DYEAR=2004
DGENRE=Soundtrack
TTITLE0=序曲
TTITLE1=誕生
TTITLE2=サーシャ
TTITLE3=試練
TTITLE4=出発
TTITLE5=追憶
TTITLE6=真赤なスカーフ
TTITLE7=決戦 ～挑戦―出撃―勝利～
TTITLE8=イスカンダル
TTITLE9=回想
TTITLE10=明日への希望 ～夢―ロマン―冒険心～
TTITLE11=スターシャン
EXTD=YEAR: 1977.12.25
EXTT0=
EXTT1=
EXTT2=
EXTT3=
EXTT4=
EXTT5=
EXTT6=
EXTT7=
EXTT8=
EXTT9=
EXTT10=
EXTT11=
PLAYORDER=
